# xmcd CD database file
#
# Track frame offsets:
#	150
#	10488
#	23568
#	34734
#	46365
#	56439
#	67265
#	78307
#	88632
#
# Disc length: 1343 seconds
#
# Revision: 3
# Processed by: cddbd v1.5.2PL0 Copyright (c) Steve Scherf et al.
# Submitted via: CDex 1.51
#
DISCID=6c053d09
DTITLE=Various Artist - The Universal Collection - Country - Vol 2
DYEAR=2000
DGENRE=Country
TTITLE0=Waylon Jennings - White Lightning
TTITLE1=Dottie West - D-I-V-O-R-C-E
TTITLE2=Jim Reeves - Am I Losing You
TTITLE3=Guy Mitchel - Heartaches By The Number
TTITLE4=Poster Wagoner - Green Green Grass Of Home
TTITLE5=Hank Locklin - Send Me The Pillow
TTITLE6=Roger Miller - King Of The Road
TTITLE7=Wanda Jackson - Stupid Cupid
TTITLE8=Johnny Rodríguez - Love With All Your Heart
EXTD=YEAR: 2000
EXTT0=
EXTT1=
EXTT2=
EXTT3=
EXTT4=
EXTT5=
EXTT6=
EXTT7=
EXTT8=
PLAYORDER=
